<svg xmlns="http://www.w3.org/2000/svg" width="2000" height="952" fill="none"><g clip-path="url(#a)"><path fill="#0F0F0F" d="M0 0h2000v952H0z"/><mask id="b" width="856" height="951" x="1145" y="0" maskUnits="userSpaceOnUse" style="mask-type:alpha"><path stroke="#151515" d="M1240.5 475.5h95v95h-95zm-95 0h95v95h-95zm95 95h95v95h-95zm0 95h95v95h-95zm0 95h95v95h-95zm0 95h95v95h-95zm-95-285h95v95h-95zm0 95h95v95h-95zm0 95h95v95h-95zm0 95h95v95h-95zm95-475h95v95h-95zm-95 0h95v95h-95zm95-95h95v95h-95zm-95 0h95v95h-95zm95-95h95v95h-95zm-95 0h95v95h-95zm95-95h95v95h-95zm-95 0h95v95h-95zm95-95h95v95h-95zm-95 0h95v95h-95zm190 475h95v95h-95zm0 95h95v95h-95zm0 95h95v95h-95zm0 95h95v95h-95zm0 95h95v95h-95zm0-475h95v95h-95zm0-95h95v95h-95zm0-95h95v95h-95zm0-95h95v95h-95zm0-95h95v95h-95zm95 475h95v95h-95zm0 95h95v95h-95zm0 95h95v95h-95zm0 95h95v95h-95zm0 95h95v95h-95zm95-190h95v95h-95zm95 0h95v95h-95zm95 0h95v95h-95zm95 0h95v95h-95zm95 0h95v95h-95zm-285-95h95v95h-95zm95 0h95v95h-95zm95 0h95v95h-95zm95 0h95v95h-95zm-380 190h95v95h-95zm95 0h95v95h-95zm95 0h95v95h-95zm95 0h95v95h-95zm95 0h95v95h-95zm-380 95h95v95h-95zm95 0h95v95h-95zm95 0h95v95h-95zm95 0h95v95h-95zm95 0h95v95h-95zm-475-475h95v95h-95zm0-95h95v95h-95zm0-95h95v95h-95zm0-95h95v95h-95zm0-95h95v95h-95zm95 475h95v95h-95zm95 0h95v95h-95zm95 0h95v95h-95zm95 0h95v95h-95zm95 0h95v95h-95zm-380 95h95v95h-95zm0-190h95v95h-95zm95 0h95v95h-95zm95 0h95v95h-95zm95 0h95v95h-95zm95 0h95v95h-95zm-380-95h95v95h-95zm95 0h95v95h-95zm95 0h95v95h-95zm95 0h95v95h-95zm95 0h95v95h-95zm-380-95h95v95h-95zm95 0h95v95h-95zm95 0h95v95h-95zm95 0h95v95h-95zm95 0h95v95h-95zm-380-95h95v95h-95zm95 0h95v95h-95zm95 0h95v95h-95zm95 0h95v95h-95zm95 0h95v95h-95zm-380-95h95v95h-95zm95 0h95v95h-95zm95 0h95v95h-95zm95 0h95v95h-95zm95 0h95v95h-95z"/><path fill="#070707" fill-opacity=".3" d="M1431 286h94v94h-94zm-95 190h94v94h-94zm190 95h94v94h-94z"/></mask><g mask="url(#b)"><ellipse cx="1625" cy="462" fill="url(#c)" rx="644" ry="607"/><ellipse cx="1445" cy="373.5" fill="url(#d)" rx="247" ry="227.5"/></g><mask id="e" width="856" height="951" x="-1" y="0" maskUnits="userSpaceOnUse" style="mask-type:alpha"><path stroke="#151515" d="M759.5 475.5h-95v95h95zm95 0h-95v95h95zm-95 95h-95v95h95zm0 95h-95v95h95zm0 95h-95v95h95zm0 95h-95v95h95zm95-285h-95v95h95zm0 95h-95v95h95zm0 95h-95v95h95zm0 95h-95v95h95zm-95-475h-95v95h95zm95 0h-95v95h95zm-95-95h-95v95h95zm95 0h-95v95h95zm-95-95h-95v95h95zm95 0h-95v95h95zm-95-95h-95v95h95zm95 0h-95v95h95zm-95-95h-95v95h95zm95 0h-95v95h95zm-190 475h-95v95h95zm0 95h-95v95h95zm0 95h-95v95h95zm0 95h-95v95h95zm0 95h-95v95h95zm0-475h-95v95h95zm0-95h-95v95h95zm0-95h-95v95h95zm0-95h-95v95h95zm0-95h-95v95h95zm-95 475h-95v95h95zm0 95h-95v95h95zm0 95h-95v95h95zm0 95h-95v95h95zm0 95h-95v95h95zm-95-190h-95v95h95zm-95 0h-95v95h95zm-95 0h-95v95h95zm-95 0h-95v95h95zm-95 0h-95v95h95zm285-95h-95v95h95zm-95 0h-95v95h95zm-95 0h-95v95h95zm-95 0h-95v95h95zm380 190h-95v95h95zm-95 0h-95v95h95zm-95 0h-95v95h95zm-95 0h-95v95h95zm-95 0h-95v95h95zm380 95h-95v95h95zm-95 0h-95v95h95zm-95 0h-95v95h95zm-95 0h-95v95h95zm-95 0h-95v95h95zm475-475h-95v95h95zm0-95h-95v95h95zm0-95h-95v95h95zm0-95h-95v95h95zm0-95h-95v95h95zm-95 475h-95v95h95zm-95 0h-95v95h95zm-95 0h-95v95h95zm-95 0h-95v95h95zm-95 0h-95v95h95zm380 95h-95v95h95zm0-190h-95v95h95zm-95 0h-95v95h95zm-95 0h-95v95h95zm-95 0h-95v95h95zm-95 0h-95v95h95zm380-95h-95v95h95zm-95 0h-95v95h95zm-95 0h-95v95h95zm-95 0h-95v95h95zm-95 0h-95v95h95zm380-95h-95v95h95zm-95 0h-95v95h95zm-95 0h-95v95h95zm-95 0h-95v95h95zm-95 0h-95v95h95zm380-95h-95v95h95zm-95 0h-95v95h95zm-95 0h-95v95h95zm-95 0h-95v95h95zm-95 0h-95v95h95zm380-95h-95v95h95zm-95 0h-95v95h95zm-95 0h-95v95h95zm-95 0h-95v95h95zm-95 0h-95v95h95z"/><path fill="#070707" fill-opacity=".3" d="M569 286h-94v94h94zm95 190h-94v94h94zm-190 95h-94v94h94z"/></mask><g mask="url(#e)"><ellipse cx="644" cy="607" fill="url(#f)" rx="644" ry="607" transform="matrix(-1 0 0 1 1019 -145)"/><ellipse cx="247" cy="227.5" fill="url(#g)" rx="247" ry="227.5" transform="matrix(-1 0 0 1 802 146)"/></g><g filter="url(#h)"><path fill="url(#i)" d="M287.619 442.274C440.944 504.225 746.863 572.1 746.863 572.1 1331.5 744.5 593.756 433.199 440.431 371.248 287.106 309.298-95.139 194.484-108.5 227.552c-13.361 33.068 242.794 152.771 396.119 214.722z"/></g></g><defs><radialGradient id="c" cx="0" cy="0" r="1" gradientTransform="matrix(0 607 -644 0 1625 462)" gradientUnits="userSpaceOnUse"><stop stop-color="#6F6F6F" stop-opacity=".2"/><stop offset="1" stop-opacity="0"/></radialGradient><radialGradient id="d" cx="0" cy="0" r="1" gradientTransform="matrix(0 227.5 -247 0 1445 373.5)" gradientUnits="userSpaceOnUse"><stop stop-color="#6F6F6F" stop-opacity=".2"/><stop offset="1" stop-opacity="0"/></radialGradient><radialGradient id="f" cx="0" cy="0" r="1" gradientTransform="matrix(0 607 -644 0 644 607)" gradientUnits="userSpaceOnUse"><stop stop-color="#6F6F6F" stop-opacity=".2"/><stop offset="1" stop-opacity="0"/></radialGradient><radialGradient id="g" cx="0" cy="0" r="1" gradientTransform="matrix(0 227.5 -247 0 247 227.5)" gradientUnits="userSpaceOnUse"><stop stop-color="#6F6F6F" stop-opacity=".2"/><stop offset="1" stop-opacity="0"/></radialGradient><linearGradient id="i" x1="105.754" x2="868.52" y1="93.116" y2="401.31" gradientUnits="userSpaceOnUse"><stop stop-color="#fff" stop-opacity=".15"/><stop offset="1" stop-color="#D0D0D0" stop-opacity=".1"/></linearGradient><clipPath id="a"><path fill="#fff" d="M0 0h2000v952H0z"/></clipPath><filter id="h" width="1277.83" height="601.825" x="-209.003" y="121.688" color-interpolation-filters="sRGB" filterUnits="userSpaceOnUse"><feFlood flood-opacity="0" result="BackgroundImageFix"/><feBlend in="SourceGraphic" in2="BackgroundImageFix" result="shape"/><feGaussianBlur result="effect1_foregroundBlur_594_192" stdDeviation="50"/></filter></defs></svg>