<svg width="103" height="32" viewBox="0 0 103 32" fill="none" xmlns="http://www.w3.org/2000/svg">
<g clip-path="url(#clip0_252_35)">
<path d="M97 0H6C2.68629 0 0 2.68629 0 6V26C0 29.3137 2.68629 32 6 32H97C100.314 32 103 29.3137 103 26V6C103 2.68629 100.314 0 97 0Z" fill="#1A1A1A"/>
<path d="M97 0.5H6C2.96243 0.5 0.5 2.96243 0.5 6V26C0.5 29.0376 2.96243 31.5 6 31.5H97C100.038 31.5 102.5 29.0376 102.5 26V6C102.5 2.96243 100.038 0.5 97 0.5Z" stroke="white" stroke-opacity="0.14"/>
<mask id="mask0_252_35" style="mask-type:luminance" maskUnits="userSpaceOnUse" x="10" y="10" width="12" height="12">
<path d="M10 10H22V22H10V10Z" fill="white"/>
</mask>
<g mask="url(#mask0_252_35)">
<path fill-rule="evenodd" clip-rule="evenodd" d="M16 10.75L22 21.25H10L16 10.75Z" fill="#EDEDED"/>
</g>
<path d="M31.5 1V31" stroke="white" stroke-opacity="0.14"/>
<path d="M42.0387 21V11.5455H45.4087C46.1443 11.5455 46.7537 11.6793 47.2369 11.9471C47.7201 12.2148 48.0817 12.5811 48.3217 13.0458C48.5618 13.5075 48.6818 14.0276 48.6818 14.6062C48.6818 15.1879 48.5603 15.7111 48.3171 16.1758C48.0771 16.6374 47.7139 17.0037 47.2276 17.2745C46.7444 17.5423 46.1366 17.6761 45.4041 17.6761H43.0866V16.4666H45.2749C45.7396 16.4666 46.1166 16.3866 46.4059 16.2266C46.6952 16.0634 46.9076 15.8419 47.043 15.5618C47.1784 15.2817 47.2461 14.9632 47.2461 14.6062C47.2461 14.2492 47.1784 13.9322 47.043 13.6552C46.9076 13.3782 46.6937 13.1612 46.4013 13.0043C46.112 12.8473 45.7304 12.7688 45.2564 12.7688H43.4652V21H42.0387ZM50.2433 21V13.9091H51.5775V15.0355H51.6514C51.7806 14.6539 52.0084 14.3538 52.3346 14.1353C52.6639 13.9137 53.0363 13.8029 53.4518 13.8029C53.538 13.8029 53.6395 13.806 53.7565 13.8121C53.8765 13.8183 53.9704 13.826 54.0381 13.8352V15.1555C53.9827 15.1402 53.8842 15.1232 53.7426 15.1048C53.6011 15.0832 53.4595 15.0724 53.3179 15.0724C52.9917 15.0724 52.7008 15.1417 52.4454 15.2802C52.193 15.4156 51.993 15.6049 51.8453 15.848C51.6975 16.0881 51.6237 16.362 51.6237 16.6697V21H50.2433ZM58.0348 21.1431C57.3362 21.1431 56.7345 20.9938 56.2298 20.6953C55.7281 20.3937 55.3403 19.9705 55.0664 19.4258C54.7956 18.878 54.6602 18.2363 54.6602 17.5007C54.6602 16.7744 54.7956 16.1342 55.0664 15.5803C55.3403 15.0263 55.7219 14.5939 56.2113 14.283C56.7037 13.9722 57.2792 13.8168 57.9379 13.8168C58.3379 13.8168 58.7257 13.8829 59.1012 14.0153C59.4767 14.1476 59.8137 14.3554 60.1122 14.6385C60.4107 14.9216 60.6462 15.2894 60.8185 15.7418C60.9909 16.1912 61.0771 16.7375 61.0771 17.3807V17.87H55.4403V16.8359H59.7244C59.7244 16.4728 59.6506 16.1512 59.5028 15.8711C59.3551 15.5879 59.1474 15.3648 58.8796 15.2017C58.6149 15.0386 58.3041 14.957 57.9471 14.957C57.5593 14.957 57.2208 15.0524 56.9315 15.2433C56.6452 15.431 56.4237 15.6772 56.2667 15.9819C56.1128 16.2835 56.0359 16.6113 56.0359 16.9652V17.7731C56.0359 18.247 56.119 18.6502 56.2852 18.9826C56.4544 19.315 56.6899 19.5689 56.9915 19.7443C57.2931 19.9167 57.6455 20.0028 58.0487 20.0028C58.3103 20.0028 58.5488 19.9659 58.7642 19.892C58.9796 19.8151 59.1658 19.7012 59.3228 19.5504C59.4798 19.3996 59.5998 19.2134 59.6829 18.9918L60.9893 19.2273C60.8847 19.612 60.697 19.949 60.4261 20.2383C60.1584 20.5245 59.8214 20.7476 59.4151 20.9077C59.012 21.0646 58.5518 21.1431 58.0348 21.1431ZM68.4715 13.9091L65.9001 21H64.4229L61.8469 13.9091H63.3287L65.1246 19.3658H65.1984L66.9896 13.9091H68.4715ZM69.7687 21V13.9091H71.1491V21H69.7687ZM70.4658 12.815C70.2258 12.815 70.0196 12.735 69.8472 12.5749C69.6779 12.4118 69.5933 12.2179 69.5933 11.9933C69.5933 11.7655 69.6779 11.5716 69.8472 11.4116C70.0196 11.2485 70.2258 11.1669 70.4658 11.1669C70.7059 11.1669 70.9105 11.2485 71.0798 11.4116C71.2522 11.5716 71.3383 11.7655 71.3383 11.9933C71.3383 12.2179 71.2522 12.4118 71.0798 12.5749C70.9105 12.735 70.7059 12.815 70.4658 12.815ZM76.0621 21.1431C75.3635 21.1431 74.7618 20.9938 74.2571 20.6953C73.7554 20.3937 73.3677 19.9705 73.0938 19.4258C72.8229 18.878 72.6875 18.2363 72.6875 17.5007C72.6875 16.7744 72.8229 16.1342 73.0938 15.5803C73.3677 15.0263 73.7493 14.5939 74.2386 14.283C74.7311 13.9722 75.3066 13.8168 75.9652 13.8168C76.3653 13.8168 76.7531 13.8829 77.1286 14.0153C77.504 14.1476 77.841 14.3554 78.1396 14.6385C78.4381 14.9216 78.6735 15.2894 78.8459 15.7418C79.0182 16.1912 79.1044 16.7375 79.1044 17.3807V17.87H73.4677V16.8359H77.7518C77.7518 16.4728 77.6779 16.1512 77.5302 15.8711C77.3825 15.5879 77.1747 15.3648 76.907 15.2017C76.6423 15.0386 76.3314 14.957 75.9744 14.957C75.5866 14.957 75.2481 15.0524 74.9588 15.2433C74.6726 15.431 74.451 15.6772 74.294 15.9819C74.1402 16.2835 74.0632 16.6113 74.0632 16.9652V17.7731C74.0632 18.247 74.1463 18.6502 74.3125 18.9826C74.4818 19.315 74.7172 19.5689 75.0188 19.7443C75.3204 19.9167 75.6728 20.0028 76.076 20.0028C76.3376 20.0028 76.5761 19.9659 76.7915 19.892C77.007 19.8151 77.1932 19.7012 77.3501 19.5504C77.5071 19.3996 77.6271 19.2134 77.7102 18.9918L79.0167 19.2273C78.9121 19.612 78.7243 19.949 78.4535 20.2383C78.1857 20.5245 77.8487 20.7476 77.4425 20.9077C77.0393 21.0646 76.5792 21.1431 76.0621 21.1431ZM82.1605 21L80.0739 13.9091H81.5004L82.8899 19.1165H82.9592L84.3533 13.9091H85.7798L87.1648 19.0934H87.234L88.6143 13.9091H90.0408L87.9588 21H86.5508L85.1104 15.8803H85.0043L83.5639 21H82.1605Z" fill="white"/>
</g>
<defs>
<clipPath id="clip0_252_35">
<rect width="103" height="32" fill="white"/>
</clipPath>
</defs>
</svg>
